<?xml version="1.0" encoding="UTF-8"?>
<!-- Generator: Adobe Illustrator 19.0.0, SVG Export Plug-In . SVG Version: 6.00 Build 0)  -->
<svg version="1.1" id="Ebene_1" xmlns="http://www.w3.org/2000/svg" xmlns:xlink="http://www.w3.org/1999/xlink" x="0px" y="0px" viewBox="0 0 273 169.9" width="273" height="169.9" style="enable-background:new 0 0 273 169.9;" xml:space="preserve">
<style type="text/css">
	.st0{fill:#C10B25;}
</style>
<g>
	<path class="st0" d="M40,42.8v2c0,5.6-2.2,8.7-9,8.7c-4.6,0-7.5-1-8.5-4.4c-1.8,3.3-5.8,4.4-9.4,4.4c-6.6,0-11.6-3.5-11.6-9.9   c0-8.3,9.4-11.5,17.3-11.5c1.2,0,2.2,0,3.1,0.1v-6.9c0-3.5-1-5.8-4.5-5.8c-1.3,0-3.8,0.2-3.8,2c0,1.2,1.6,1.7,1.6,4   c0,3.1-2.6,5.2-5.6,5.2c-3.2,0-5.7-2.3-5.7-5.6c0-7,9.6-8,14.9-8c8.6,0,14.8,1.7,14.8,12.4v15.4c0,2.9,0,4.4,1.6,4.4   c1.7,0,1.8-2.7,1.8-4.7v-2H40z M21.8,34.8c-0.4-0.1-0.9-0.2-2-0.2c-5.1,0-6.7,4.1-6.7,8.8c0,3.7,1.4,6.2,4.1,6.2   c3.1,0,4.6-2.2,4.6-5.5V34.8z"/>
	<path class="st0" d="M40.6,50.5h1.8c2.3,0,2.9-1.1,2.9-3.9V24.5c0-3.7-0.7-4.1-2.6-4.1h-2.1v-2h2.3c4.5,0,10-0.3,13.7-1.1v5.9h0.1   c2.2-4.1,6.4-5.9,10.7-5.9c9.5,0,10.6,4.6,10.6,10.6v17.4c0,4.7,0.2,5.2,2.7,5.2h1.6v2H62.8v-2h1.2c1.9,0,2.3-0.8,2.3-4.8V26.5   c0-3.6-1.6-4.8-3.9-4.8c-3.1,0-5.4,2.4-5.4,8.6V45c0,4.6,0.3,5.5,2.7,5.5h1.2v2H40.6V50.5z"/>
	<path class="st0" d="M80.7,50.5h1.8c2.3,0,2.9-1.1,2.9-3.9V24.5c0-3.7-0.7-4.1-2.6-4.1h-2.1v-2H83c4.5,0,10-0.3,13.7-1.1v5.9h0.1   c2.2-4.1,6.4-5.9,10.7-5.9c9.5,0,10.6,4.6,10.6,10.6v17.4c0,4.7,0.2,5.2,2.7,5.2h1.6v2h-19.5v-2h1.2c1.9,0,2.3-0.8,2.3-4.8V26.5   c0-3.6-1.6-4.8-3.9-4.8c-3.1,0-5.4,2.4-5.4,8.6V45c0,4.6,0.3,5.5,2.7,5.5h1.2v2H80.7V50.5z"/>
	<path class="st0" d="M133.4,35.6c0,8.3,0.3,15.6,7.5,15.6c6.5,0,10.1-5.1,10.6-10.5h2.9c-1.1,8.8-6.3,12.9-15.6,12.9   c-10.9,0-17.5-7.3-17.5-18.2c0-10.8,6.6-18.1,17.5-18.1c10.4,0,16.5,6.9,16.5,17.5v0.8H133.4z M139.9,3.1c1.3-1.7,2.8-3.1,5.1-3.1   c2.3,0,4.5,1.2,4.5,3.6c0,2.7-2.6,4-4.6,5.2l-8.2,4.5h-4.4L139.9,3.1z M143,33.2c0-6.3-0.3-13.5-4.3-13.5c-4.4,0-4.9,2.8-5.3,13.5   H143z"/>
	<path class="st0" d="M170.2,35.6c0,8.3,0.3,15.6,7.5,15.6c6.5,0,10.1-5.1,10.6-10.5h2.9c-1.1,8.8-6.3,12.9-15.6,12.9   c-10.9,0-17.5-7.3-17.5-18.2c0-10.8,6.6-18.1,17.5-18.1c10.4,0,16.5,6.9,16.5,17.5v0.8H170.2z M179.8,33.2c0-6.3-0.3-13.5-4.3-13.5   c-4.4,0-4.9,2.8-5.3,13.5H179.8z"/>
	<path class="st0" d="M0,123.5h0.7c3,0,3.9-1.6,3.9-6.9V84.8c0-5-0.5-6.3-3.9-6.3H0v-2h2.3c4.5,0,10-0.3,13.7-1.1v5.7h0.1   c1.8-4.1,6-5.7,9.8-5.7c9.5,0,13.2,8.4,13.2,15.8c0,9.6-2.5,20.4-13.7,20.4c-3.9,0-6.9-1.8-8.8-5.2h-0.1v12.7   c0,3.3,1.9,4.2,3.4,4.2h1.3v2H0V123.5z M16.4,93.9c0,4.8,0.1,14.6,6,14.6c3.7,0,4.5-5.4,4.5-15.4c0-8-0.3-14.1-4.4-14.1   C17.1,79.1,16.4,86.8,16.4,93.9z"/>
	<path class="st0" d="M76.7,93.6c0,10.9-6.6,18.2-17.5,18.2s-17.5-7.3-17.5-18.2c0-10.8,6.6-18.1,17.5-18.1S76.7,82.8,76.7,93.6z    M53.8,93.6c0,10.3,0.4,15.8,5.3,15.8c4.9,0,5.3-5.4,5.3-15.8c0-10.3-0.4-15.7-5.3-15.7C54.3,77.9,53.8,83.3,53.8,93.6z"/>
	<path class="st0" d="M92.9,100.7c0,7.1,0.3,8,2.7,8h1.6v2h-21v-2h2.1c2.3,0,2.9-1.1,2.9-3.9v-37c0-4.9-0.7-5.8-2.6-5.8h-2.4v-2   h16.7V100.7z"/>
	<path class="st0" d="M96.6,108.7h1.6c2.6,0,3.1-0.4,3.1-8.3V91c0-11.8-0.3-12.4-2.9-12.4h-1.8v-2h3.1c4.5,0,10-0.3,13.7-1.1   c-0.1,2.8-0.3,5.6-0.3,8.4v18.4c0,4.8,0.1,6.4,2.7,6.4h1.3v2H96.6V108.7z M106.8,59.3c3.5,0,6.8,2.9,6.8,6.5c0,3.6-3.3,6.5-6.8,6.5   c-3.5,0-6.9-2.9-6.9-6.5C99.9,62.2,103.3,59.3,106.8,59.3z"/>
	<path class="st0" d="M132.1,76.6h6.7v2h-6.7v21.3c0,2.5,0,7.4,3,7.4c3.3,0,3.3-4.8,3.3-7.1h2.4v1.6c0,5.9-2.7,10-9.7,10   c-7.9,0-10.6-4.2-10.7-11.6c0-2-0.1-4.1-0.1-6.1V78.6H116v-2c7.1-0.7,12.4-8,14.2-14.3h1.9V76.6z"/>
	<path class="st0" d="M141.1,108.7h1.6c2.6,0,3.1-0.4,3.1-8.3V91c0-11.8-0.3-12.4-2.9-12.4h-1.8v-2h3.1c4.5,0,10-0.3,13.7-1.1   c-0.1,2.8-0.3,5.6-0.3,8.4v18.4c0,4.8,0.1,6.4,2.7,6.4h1.3v2h-20.3V108.7z M151.3,59.3c3.5,0,6.8,2.9,6.8,6.5   c0,3.6-3.3,6.5-6.8,6.5c-3.5,0-6.9-2.9-6.9-6.5C144.4,62.2,147.7,59.3,151.3,59.3z"/>
	<path class="st0" d="M178.5,125.4v-2h1.3c1.5,0,3.4-1,3.4-4.2v-12.7h-0.1c-2,3.5-5.1,5.2-9.9,5.2c-10.2,0-12.7-10.8-12.7-19   c0-8,3.7-17.3,13.2-17.3c3.8,0,8,1.6,9.8,5.7h0.1v-4.6h16v2h-0.7c-3.4,0-3.9,1.3-3.9,6.3v31.7c0,5.3,1,6.9,3.9,6.9h0.7v2H178.5z    M172.8,93.2c0,9.9,0.8,15.4,4.5,15.4c5.8,0,6-9.9,6-14.6c0-7.1-0.7-14.8-6.1-14.8C173.1,79.1,172.8,85.2,172.8,93.2z"/>
	<path class="st0" d="M196.5,76.6h3c4.5,0,10-0.3,13.7-1.1c-0.3,4.4-0.3,8.5-0.3,12.7v12.6c0,4.4,0.5,6.5,3.7,6.5   c5.7,0,5.7-9.5,5.7-14.1V83.1c0-3.9-0.5-4.5-2.9-4.5h-1.6v-2h2.9c4.5,0,10-0.3,13.7-1.1c-0.3,4.6-0.4,8.2-0.4,12.7v7.1   c0,4.7-0.1,9,0.2,10.9c0.2,2.4,2.1,2.4,4.1,2.4v2c-5.1,0-10.3-0.1-15.6,0.4v-5.6h-0.1c-2.1,4-5.9,6.3-10.5,6.3   c-10.5,0-10.7-8.2-10.7-12.1V85.2c0-5.6,0-6.7-2.9-6.7h-1.8V76.6z"/>
	<path class="st0" d="M251.2,93.8c0,8.3,0.3,15.6,7.5,15.6c6.5,0,10.1-5.1,10.6-10.5h2.9c-1.1,8.8-6.3,12.9-15.6,12.9   c-10.9,0-17.5-7.3-17.5-18.2c0-10.8,6.6-18.1,17.5-18.1c10.4,0,16.5,6.9,16.5,17.5v0.8H251.2z M260.8,91.4c0-6.3-0.3-13.5-4.3-13.5   c-4.4,0-4.9,2.8-5.3,13.5H260.8z"/>
	<path class="st0" d="M27.7,144.7h-2.4c-1-4.5-4.2-8.6-9.2-8.6c-3.1,0-6.5,1.4-6.5,4.6c0,3.4,3.3,4.2,7.6,5.2l4.3,1   c4.7,1.1,8.9,3.3,8.9,10.5c0,8.6-7,12.4-14.8,12.4c-1.8,0-3.7-0.1-5.5-0.5c-1-0.2-3.1-0.6-4-0.6c-1.4,0-2.9,0.5-4.1,1.1v-12.7h2.4   c0.8,6.1,4.8,10.3,11.2,10.3c3.5,0,6.7-2,6.7-5.1c0-2.9-1.2-4.3-6.5-5.6l-3.3-0.8c-6-1.5-11-3.7-11-10.7c0-7.8,6.7-11.6,13.8-11.6   c2.2,0,4.1,0.3,6.3,0.5c1,0.1,1.8,0.2,2.7,0.2c1.2,0,2.4-0.2,3.5-0.9V144.7z"/>
	<path class="st0" d="M31.1,134.8h3c4.5,0,10-0.3,13.7-1.1c-0.3,4.4-0.3,8.5-0.3,12.7V159c0,4.4,0.5,6.5,3.7,6.5   c5.7,0,5.7-9.5,5.7-14.1v-10.2c0-3.9-0.5-4.5-2.9-4.5h-1.6v-2h2.9c4.5,0,10-0.3,13.7-1.1c-0.3,4.6-0.4,8.2-0.4,12.7v7.1   c0,4.7-0.1,9,0.2,10.9c0.2,2.4,2.1,2.4,4.1,2.4v2c-5.1,0-10.3-0.1-15.6,0.4v-5.6H57c-2.1,4-5.9,6.3-10.5,6.3   c-10.5,0-10.7-8.2-10.7-12.1v-14.4c0-5.6,0-6.7-2.9-6.7h-1.8V134.8z"/>
	<path class="st0" d="M72.5,166.9h1.6c2.6,0,3.1-0.4,3.1-8.3v-9.4c0-11.8-0.3-12.4-2.9-12.4h-1.8v-2h3.1c4.5,0,10-0.3,13.7-1.1   c-0.1,2.8-0.3,5.6-0.3,8.4v18.4c0,4.8,0.1,6.4,2.7,6.4h1.3v2H72.5V166.9z M82.7,117.5c3.5,0,6.8,2.9,6.8,6.5c0,3.6-3.3,6.5-6.8,6.5   c-3.5,0-6.9-2.9-6.9-6.5C75.8,120.4,79.1,117.5,82.7,117.5z"/>
	<path class="st0" d="M121,144.7h-2.4c-1-4.5-4.2-8.6-9.2-8.6c-3.1,0-6.5,1.4-6.5,4.6c0,3.4,3.3,4.2,7.6,5.2l4.3,1   c4.7,1.1,8.9,3.3,8.9,10.5c0,8.6-7,12.4-14.8,12.4c-1.8,0-3.7-0.1-5.5-0.5c-1-0.2-3.1-0.6-4-0.6c-1.4,0-2.9,0.5-4.1,1.1v-12.7h2.4   c0.8,6.1,4.8,10.3,11.1,10.3c3.5,0,6.7-2,6.7-5.1c0-2.9-1.2-4.3-6.5-5.6l-3.3-0.8c-6-1.5-11-3.7-11-10.7c0-7.8,6.7-11.6,13.8-11.6   c2.2,0,4.1,0.3,6.3,0.5c1,0.1,1.8,0.2,2.7,0.2c1.2,0,2.4-0.2,3.5-0.9V144.7z"/>
	<path class="st0" d="M153,144.7h-2.4c-1-4.5-4.2-8.6-9.2-8.6c-3.1,0-6.5,1.4-6.5,4.6c0,3.4,3.3,4.2,7.6,5.2l4.3,1   c4.7,1.1,8.9,3.3,8.9,10.5c0,8.6-7,12.4-14.8,12.4c-1.8,0-3.7-0.1-5.5-0.5c-1-0.2-3.1-0.6-4-0.6c-1.4,0-2.9,0.5-4.1,1.1v-12.7h2.4   c0.8,6.1,4.8,10.3,11.1,10.3c3.5,0,6.7-2,6.7-5.1c0-2.9-1.2-4.3-6.5-5.6l-3.3-0.8c-6-1.5-11-3.7-11-10.7c0-7.8,6.7-11.6,13.8-11.6   c2.2,0,4.1,0.3,6.3,0.5c1,0.1,1.8,0.2,2.7,0.2c1.2,0,2.4-0.2,3.5-0.9V144.7z"/>
	<path class="st0" d="M169.9,152c0,8.3,0.3,15.6,7.5,15.6c6.5,0,10.1-5.1,10.6-10.5h2.9c-1.1,8.8-6.3,12.9-15.6,12.9   c-10.9,0-17.5-7.3-17.5-18.2c0-10.8,6.6-18.1,17.5-18.1c10.4,0,16.5,6.9,16.5,17.5v0.8H169.9z M179.5,149.6   c0-6.3-0.3-13.5-4.3-13.5c-4.4,0-4.9,2.8-5.3,13.5H179.5z"/>
</g>
</svg>